<svg width="32" height="45" viewBox="0 0 32 45" fill="none" xmlns="http://www.w3.org/2000/svg">
<path d="M12.9175 43V42.8099C9.40272 40.5946 8.42861 39.0537 9.99283 35.3159C10.987 33.1746 11.2594 31.8671 11.0862 29.2881C12.8859 30.6958 13.0938 31.6365 13.2182 33.3609C16.5568 30.2796 17.449 28.2675 16.3069 23.8848C18.8379 25.7955 19.9077 27.2085 18.5483 32.9265C18.605 34.7378 18.9852 35.3834 19.9423 36.2391C19.1565 33.3459 19.681 32.2861 21.4184 30.8629C21.1659 32.3735 21.3193 33.2615 22.047 34.9086C24.2237 38.0458 23.8735 39.62 21.4184 42.2126C29.9703 38.3937 32.9879 35.5408 29.7005 26.9801C26.4673 21.5287 26.1018 18.4425 27.8691 12.8881C23.6871 14.9238 22.2316 16.6949 21.9924 21.5225C16.314 14.8052 13.2126 11.0189 16.9629 2C12.3925 4.00964 10.9887 6.32463 9.74682 11.7477C8.53835 15.7851 11.4142 19.8662 11.4142 21.9298C11.4142 23.9934 10.3413 25.6024 9.11814 26.9801C10.0195 21.0344 8.97972 18.7981 5.1274 16.2278C7.61477 24.8351 1 26.0026 1 32.2205C1 38.4384 4.53864 41.3198 12.9175 43Z" stroke="white" stroke-width="2"/>
</svg>
