<svg width="6" height="40" viewBox="0 0 6 40" fill="none" xmlns="http://www.w3.org/2000/svg">
<path d="M3 40C2.175 40 1.46875 39.7005 0.88125 39.1015C0.29375 38.5025 0 37.7824 0 36.9412C0 36.1 0.29375 35.3798 0.88125 34.7808C1.46875 34.1818 2.175 33.8823 3 33.8823C3.825 33.8823 4.53125 34.1818 5.11875 34.7808C5.70625 35.3798 6 36.1 6 36.9412C6 37.7824 5.70625 38.5025 5.11875 39.1015C4.53125 39.7005 3.825 40 3 40ZM3 23.0588C2.175 23.0588 1.46875 22.7593 0.88125 22.1603C0.29375 21.5613 0 20.8412 0 20C0 19.1588 0.29375 18.4387 0.88125 17.8397C1.46875 17.2407 2.175 16.9412 3 16.9412C3.825 16.9412 4.53125 17.2407 5.11875 17.8397C5.70625 18.4387 6 19.1588 6 20C6 20.8412 5.70625 21.5613 5.11875 22.1603C4.53125 22.7593 3.825 23.0588 3 23.0588ZM3 6.11771C2.175 6.11771 1.46875 5.8182 0.88125 5.21918C0.29375 4.62016 0 3.90004 0 3.05882C0 2.21764 0.29375 1.49755 0.88125 0.898528C1.46875 0.299509 2.175 0 3 0C3.825 0 4.53125 0.299509 5.11875 0.898528C5.70625 1.49755 6 2.21764 6 3.05882C6 3.90004 5.70625 4.62016 5.11875 5.21918C4.53125 5.8182 3.825 6.11771 3 6.11771Z" fill="white"/>
</svg>
