<svg width="46" height="45" viewBox="0 0 46 45" fill="none" xmlns="http://www.w3.org/2000/svg">
<path fill-rule="evenodd" clip-rule="evenodd" d="M23 5.625C18.4167 5.625 17.843 5.64413 16.043 5.72625C14.2464 5.80838 13.019 6.09413 11.9457 6.5115C10.8207 6.9345 9.80037 7.59825 8.95662 8.45775C8.0985 9.30053 7.43434 10.3202 7.01038 11.4457C6.59525 12.519 6.30838 13.7475 6.22625 15.5441C6.14525 17.343 6.125 17.9156 6.125 22.5C6.125 27.0844 6.14413 27.657 6.22625 29.457C6.30838 31.2536 6.59413 32.481 7.0115 33.5543C7.4345 34.6793 8.09825 35.6996 8.95775 36.5434C9.80055 37.4015 10.8202 38.0656 11.9457 38.4896C13.019 38.9059 14.2464 39.1916 16.043 39.2738C17.843 39.3559 18.4167 39.375 23 39.375C27.5833 39.375 28.157 39.3559 29.957 39.2738C31.7536 39.1916 32.981 38.9059 34.0543 38.4885C35.1793 38.0655 36.1996 37.4018 37.0434 36.5422C37.9015 35.6995 38.5657 34.6798 38.9896 33.5543C39.4059 32.481 39.6916 31.2536 39.7738 29.457C39.8559 27.657 39.875 27.0833 39.875 22.5C39.875 17.9167 39.8559 17.343 39.7738 15.543C39.6916 13.7464 39.4059 12.519 38.9885 11.4457C38.5648 10.3197 37.9007 9.29961 37.0422 8.45662C36.1995 7.5985 35.1798 6.93434 34.0543 6.51038C32.981 6.09525 31.7525 5.80838 29.9559 5.72625C28.157 5.64525 27.5844 5.625 23 5.625ZM23 8.66587C27.5056 8.66587 28.04 8.68275 29.8197 8.76375C31.4645 8.83912 32.3577 9.1125 32.9529 9.34537C33.7404 9.65025 34.3029 10.017 34.8935 10.6065C35.4841 11.1971 35.8498 11.7596 36.1546 12.5471C36.3864 13.1423 36.6609 14.0355 36.7362 15.6803C36.8172 17.46 36.8341 17.9944 36.8341 22.5C36.8341 27.0056 36.8172 27.54 36.7362 29.3197C36.6609 30.9645 36.3875 31.8577 36.1546 32.4529C35.8846 33.1859 35.4536 33.849 34.8935 34.3935C34.3491 34.9537 33.6859 35.3847 32.9529 35.6546C32.3577 35.8864 31.4645 36.1609 29.8197 36.2362C28.04 36.3172 27.5068 36.3341 23 36.3341C18.4932 36.3341 17.96 36.3172 16.1803 36.2362C14.5355 36.1609 13.6423 35.8875 13.0471 35.6546C12.3141 35.3846 11.651 34.9536 11.1065 34.3935C10.5464 33.8489 10.1155 33.1858 9.84537 32.4529C9.61362 31.8577 9.33912 30.9645 9.26375 29.3197C9.18275 27.54 9.16587 27.0056 9.16587 22.5C9.16587 17.9944 9.18275 17.46 9.26375 15.6803C9.33912 14.0355 9.6125 13.1423 9.84537 12.5471C10.1502 11.7596 10.517 11.1971 11.1065 10.6065C11.6509 10.0463 12.3141 9.61535 13.0471 9.34537C13.6423 9.11362 14.5355 8.83912 16.1803 8.76375C17.96 8.68275 18.4944 8.66587 23 8.66587Z" fill="white"/>
<path fill-rule="evenodd" clip-rule="evenodd" d="M23 28.1308C22.2606 28.1308 21.5284 27.9852 20.8453 27.7022C20.1622 27.4193 19.5414 27.0045 19.0186 26.4817C18.4957 25.9588 18.081 25.3381 17.798 24.655C17.5151 23.9718 17.3694 23.2396 17.3694 22.5002C17.3694 21.7608 17.5151 21.0286 17.798 20.3455C18.081 19.6623 18.4957 19.0416 19.0186 18.5188C19.5414 17.9959 20.1622 17.5812 20.8453 17.2982C21.5284 17.0152 22.2606 16.8696 23 16.8696C24.4934 16.8696 25.9255 17.4628 26.9815 18.5188C28.0374 19.5747 28.6307 21.0069 28.6307 22.5002C28.6307 23.9936 28.0374 25.4257 26.9815 26.4817C25.9255 27.5376 24.4934 28.1308 23 28.1308ZM23 13.8265C20.6996 13.8265 18.4934 14.7403 16.8668 16.3669C15.2401 17.9936 14.3263 20.1998 14.3263 22.5002C14.3263 24.8006 15.2401 27.0068 16.8668 28.6335C18.4934 30.2601 20.6996 31.174 23 31.174C25.3005 31.174 27.5067 30.2601 29.1333 28.6335C30.76 27.0068 31.6738 24.8006 31.6738 22.5002C31.6738 20.1998 30.76 17.9936 29.1333 16.3669C27.5067 14.7403 25.3005 13.8265 23 13.8265ZM34.1972 13.669C34.1972 14.2127 33.9811 14.7342 33.5966 15.1188C33.2121 15.5033 32.6906 15.7193 32.1469 15.7193C31.6031 15.7193 31.0816 15.5033 30.6971 15.1188C30.3126 14.7342 30.0965 14.2127 30.0965 13.669C30.0965 13.1252 30.3126 12.6037 30.6971 12.2192C31.0816 11.8347 31.6031 11.6187 32.1469 11.6187C32.6906 11.6187 33.2121 11.8347 33.5966 12.2192C33.9811 12.6037 34.1972 13.1252 34.1972 13.669Z" fill="white"/>
</svg>
